# xmcd CD database file
#
# Track frame offsets:
#	150
#	27874
#	48496
#	69343
#	83003
#	104056
#	129023
#	147510
#	175234
#
# Disc length: 2655 seconds
#
# Revision: 0
# Processed by: cddbd v1.5PL3 Copyright (c) Steve Scherf et al.
# Submitted via: CDex 1.51
#
DISCID=750a5d09
DTITLE=Sting&Police - Arabic Jazz
DYEAR=2003
DGENRE=Jazz
TTITLE0=Wrapped Around Your Finger
TTITLE1=Wlaking On The Moon
TTITLE2=Spirits In The Material World
TTITLE3=Every Little Thing She Does Is Magic
TTITLE4=Every Breath You Take
TTITLE5=Message In A Bottle
TTITLE6=English Man In Cario
TTITLE7=Roxanne
TTITLE8=Egypt Desert Rose
EXTD=YEAR: 2003
EXTT0=
EXTT1=
EXTT2=
EXTT3=
EXTT4=
EXTT5=
EXTT6=
EXTT7=
EXTT8=
PLAYORDER=
